<svg width="20" height="21" viewBox="0 0 20 21" fill="none" xmlns="http://www.w3.org/2000/svg">
<path d="M10 0.973877C4.48 0.973877 0 5.45388 0 10.9739C0 16.4939 4.48 20.9739 10 20.9739C15.5 20.9739 20 16.4939 20 10.9739C20 5.45388 15.5 0.973877 10 0.973877ZM16.6 5.57388C17.8 7.03388 18.5 8.87388 18.54 10.8939C18.26 10.8339 15.44 10.2739 12.6 10.6139C12.54 10.4739 12.48 10.3139 12.42 10.1739C12.24 9.75388 12.06 9.33388 11.86 8.93388C14.98 7.67388 16.42 5.81388 16.6 5.57388ZM10 2.45388C12.16 2.45388 14.16 3.27388 15.66 4.59388C15.5 4.81388 14.22 6.53388 11.18 7.67388C9.78 5.09388 8.22 2.99388 8 2.67388C8.64 2.53388 9.3 2.45388 10 2.45388ZM6.36 3.25388C6.58 3.55388 8.1 5.67388 9.52 8.19388C5.52 9.25388 2 9.23388 1.62 9.23388C2.2 6.57388 3.98 4.37388 6.36 3.25388ZM1.46 10.9939C1.46 10.9139 1.46 10.8139 1.46 10.7339C1.82 10.7539 5.98 10.7939 10.24 9.51388C10.48 9.99388 10.72 10.4739 10.94 10.9739C10.84 11.0139 10.72 11.0339 10.6 11.0739C6.2 12.4939 3.86 16.3739 3.66 16.6939C2.28 15.1739 1.46 13.1739 1.46 10.9939ZM10 19.5139C8.02 19.5139 6.2 18.8339 4.76 17.7139C4.92 17.3939 6.64 14.0539 11.46 12.3739C11.48 12.3539 11.5 12.3539 11.52 12.3539C12.72 15.4739 13.22 18.0739 13.34 18.8339C12.32 19.2739 11.18 19.5139 10 19.5139ZM14.76 18.0539C14.68 17.5339 14.22 15.0339 13.1 11.9739C15.78 11.5539 18.12 12.2539 18.42 12.3339C18.04 14.7139 16.68 16.7739 14.76 18.0539Z" fill="white"/>
</svg>
