<svg width="20" height="20" viewBox="0 0 20 20" fill="none" xmlns="http://www.w3.org/2000/svg">
<path fill-rule="evenodd" clip-rule="evenodd" d="M9.96942 0.214111C4.46483 0.214111 0 4.67894 0 10.1835C0 14.5872 2.87462 18.3181 6.78899 19.6637C7.27829 19.7248 7.46177 19.419 7.46177 19.1744C7.46177 18.9297 7.46177 18.3181 7.46177 17.4618C4.70948 18.0734 4.09786 16.1163 4.09786 16.1163C3.66972 14.9542 2.99694 14.6484 2.99694 14.6484C2.07951 14.0367 3.0581 14.0367 3.0581 14.0367C4.0367 14.0979 4.58716 15.0765 4.58716 15.0765C5.50459 16.6055 6.91131 16.1774 7.46177 15.9328C7.52294 15.26 7.82875 14.8318 8.07339 14.5872C5.87156 14.3426 3.5474 13.4863 3.5474 9.63307C3.5474 8.53215 3.91437 7.67588 4.58716 6.94194C4.52599 6.75845 4.15902 5.7187 4.70948 4.37313C4.70948 4.37313 5.56575 4.12848 7.46177 5.41289C8.25688 5.16824 9.11315 5.10708 9.96942 5.10708C10.8257 5.10708 11.682 5.2294 12.4771 5.41289C14.3731 4.12848 15.2294 4.37313 15.2294 4.37313C15.7798 5.7187 15.4128 6.75845 15.3517 7.0031C15.9633 7.67589 16.3914 8.59332 16.3914 9.69423C16.3914 13.5474 14.0673 14.3426 11.8654 14.5872C12.2324 14.893 12.5382 15.5046 12.5382 16.4221C12.5382 17.7676 12.5382 18.8074 12.5382 19.1744C12.5382 19.419 12.7217 19.7248 13.211 19.6637C17.1865 18.3181 20 14.5872 20 10.1835C19.9388 4.67894 15.474 0.214111 9.96942 0.214111Z" fill="white"/>
</svg>
