<svg width="20" height="21" viewBox="0 0 20 21" fill="none" xmlns="http://www.w3.org/2000/svg">
<path d="M4.50001 20.9739H0.249996V7.59888H4.50001V20.9739ZM2.375 5.72388C1 5.72388 0 4.72388 0 3.34888C0 1.97388 1.125 0.973877 2.375 0.973877C3.75 0.973877 4.75 1.97388 4.75 3.34888C4.75 4.72388 3.75 5.72388 2.375 5.72388ZM20 20.9739H15.75V13.7239C15.75 11.5989 14.875 10.9739 13.625 10.9739C12.375 10.9739 11.125 11.9739 11.125 13.8489V20.9739H6.875V7.59888H10.875V9.47388C11.25 8.59888 12.75 7.22388 14.875 7.22388C17.25 7.22388 19.75 8.59888 19.75 12.7239V20.9739H20Z" fill="white"/>
</svg>
